<?xml version="1.0" encoding="utf-8"?>
<!-- Generator: Adobe Illustrator 19.2.1, SVG Export Plug-In . SVG Version: 6.00 Build 0)  -->
<svg version="1.1" id="Layer_1" xmlns="http://www.w3.org/2000/svg" xmlns:xlink="http://www.w3.org/1999/xlink" x="0px" y="0px"
	 viewBox="0 0 30 24" style="enable-background:new 0 0 30 24;" xml:space="preserve">
<style type="text/css">
	.st0{fill:#231F20;}
</style>
<path class="st0" d="M15,8c-3.3,0-6,2.7-6,6s2.7,6,6,6s6-2.7,6-6S18.3,8,15,8z M15,18c-2.2,0-4-1.8-4-4c0-2.2,1.8-4,4-4
	c2.2,0,4,1.8,4,4C19,16.2,17.2,18,15,18z M27,4H12V2c0-1.1-0.9-2-2-2H6C4.9,0,4,0.9,4,2v2H3C1.3,4,0,5.3,0,7v14c0,1.7,1.3,3,3,3h24
	c1.7,0,3-1.3,3-3V7C30,5.3,28.7,4,27,4z M6,2h4v2H6V2z M28,21c0,0.6-0.4,1-1,1H3c-0.6,0-1-0.4-1-1V7c0-0.6,0.4-1,1-1h3h4h17
	c0.6,0,1,0.4,1,1V21z"/>
</svg>
