<?xml version="1.0" encoding="utf-8"?>
<!-- Generator: Adobe Illustrator 19.2.1, SVG Export Plug-In . SVG Version: 6.00 Build 0)  -->
<svg version="1.1" id="Layer_1" xmlns="http://www.w3.org/2000/svg" xmlns:xlink="http://www.w3.org/1999/xlink" x="0px" y="0px"
	 viewBox="0 0 70 70" style="enable-background:new 0 0 70 70;" xml:space="preserve">
<style type="text/css">
	.st0{fill:#33CC99;}
</style>
<path class="st0" d="M70,35c0-6.8-2-13.4-5.7-19l0,0l-0.6-0.9c0,0,0,0,0,0l-0.5-0.8l0,0C56.6,5.3,46.1,0,35,0
	C23.9,0,13.4,5.3,6.8,14.3l0,0l-0.5,0.8c0,0,0,0,0,0l-0.6,0.9l0,0C2,21.6,0,28.2,0,35c0,6.8,2,13.4,5.7,19l0,0l0.6,0.9l0.5,0.8l0,0
	C13.4,64.7,23.9,70,35,70c11.1,0,21.6-5.3,28.2-14.3l0,0l0.5-0.8l0.6-0.9l0,0C68,48.4,70,41.8,70,35z M61.5,52.4
	c-0.3-0.2-0.6-0.3-0.8-0.4c-0.2-0.1-0.5-0.2-0.7-0.4c-0.3-0.1-0.6-0.3-0.9-0.4c-0.2-0.1-0.5-0.2-0.7-0.3c-0.3-0.1-0.6-0.3-0.9-0.4
	c-0.2-0.1-0.5-0.2-0.8-0.3c-0.3-0.1-0.6-0.2-0.9-0.4c-0.3-0.1-0.5-0.2-0.8-0.3c-0.3-0.1-0.6-0.2-0.8-0.3c1.1-4,1.7-8.5,1.8-13.2h12
	c-0.2,6.1-2,11.9-5.3,17c-0.1-0.1-0.3-0.1-0.4-0.2C62,52.7,61.8,52.5,61.5,52.4z M14.2,49.8c-0.3,0.1-0.6,0.2-0.9,0.4
	c-0.3,0.1-0.5,0.2-0.8,0.3c-0.3,0.1-0.6,0.3-0.9,0.4c-0.2,0.1-0.5,0.2-0.7,0.3c-0.3,0.1-0.6,0.3-0.9,0.4c-0.2,0.1-0.5,0.2-0.7,0.4
	c-0.3,0.1-0.6,0.3-0.9,0.5c-0.2,0.1-0.5,0.3-0.7,0.4c-0.1,0.1-0.3,0.1-0.4,0.2C4,47.9,2.2,42.1,2,36h12c0.1,4.7,0.7,9.1,1.8,13.2
	c-0.3,0.1-0.6,0.2-0.8,0.3C14.7,49.6,14.4,49.7,14.2,49.8z M7.8,17.2c0.2,0.1,0.5,0.3,0.7,0.4C8.7,17.7,9,17.9,9.3,18
	c0.2,0.1,0.5,0.2,0.7,0.4c0.3,0.1,0.6,0.3,0.9,0.4c0.2,0.1,0.5,0.2,0.7,0.3c0.3,0.1,0.6,0.3,0.9,0.4c0.3,0.1,0.5,0.2,0.8,0.3
	c0.3,0.1,0.6,0.2,0.9,0.4c0.3,0.1,0.5,0.2,0.8,0.3c0.3,0.1,0.6,0.2,0.8,0.3c-1.1,4-1.7,8.5-1.8,13.2H2c0.2-6.1,2-11.9,5.3-17
	C7.5,17.1,7.6,17.1,7.8,17.2z M55.8,20.2c0.3-0.1,0.6-0.2,0.9-0.4c0.2-0.1,0.5-0.2,0.7-0.3c0.3-0.1,0.6-0.3,0.9-0.4
	c0.2-0.1,0.5-0.2,0.7-0.3c0.3-0.1,0.6-0.3,0.9-0.4c0.2-0.1,0.5-0.2,0.7-0.4c0.3-0.2,0.6-0.3,0.9-0.5c0.2-0.1,0.5-0.3,0.7-0.4
	c0.1-0.1,0.3-0.1,0.4-0.2c3.3,5.1,5.1,10.9,5.3,17H56c-0.1-4.7-0.7-9.1-1.8-13.2c0.3-0.1,0.6-0.2,0.9-0.3
	C55.3,20.4,55.5,20.3,55.8,20.2z M51.6,48.3c-0.3-0.1-0.6-0.2-1-0.3c-0.3-0.1-0.5-0.1-0.8-0.2c-0.3-0.1-0.7-0.2-1-0.2
	c-0.3-0.1-0.5-0.1-0.8-0.2c-0.3-0.1-0.7-0.1-1-0.2c-0.3-0.1-0.5-0.1-0.8-0.2c-0.3-0.1-0.7-0.1-1-0.2c-0.3,0-0.5-0.1-0.8-0.1
	c-0.3-0.1-0.7-0.1-1-0.2c-0.3,0-0.5-0.1-0.8-0.1c-0.4,0-0.7-0.1-1.1-0.1c-0.3,0-0.5-0.1-0.8-0.1c-0.4,0-0.8-0.1-1.1-0.1
	c-0.2,0-0.5,0-0.7-0.1c-0.4,0-0.8,0-1.3-0.1c-0.2,0-0.4,0-0.6,0c-0.3,0-0.6,0-0.9,0V36h18c-0.1,4.5-0.7,8.7-1.7,12.6
	C52.1,48.5,51.8,48.4,51.6,48.3z M32.4,46.1c-0.4,0-0.8,0-1.3,0.1c-0.3,0-0.5,0-0.8,0.1c-0.4,0-0.7,0.1-1.1,0.1
	c-0.3,0-0.5,0.1-0.8,0.1c-0.3,0-0.7,0.1-1,0.1c-0.3,0-0.6,0.1-0.8,0.1c-0.3,0-0.7,0.1-1,0.1c-0.3,0-0.6,0.1-0.8,0.1
	c-0.3,0.1-0.7,0.1-1,0.2c-0.3,0.1-0.6,0.1-0.9,0.2c-0.3,0.1-0.6,0.1-1,0.2c-0.3,0.1-0.6,0.1-0.8,0.2c-0.3,0.1-0.6,0.1-0.9,0.2
	c-0.3,0.1-0.6,0.2-0.8,0.2c-0.3,0.1-0.6,0.2-0.9,0.3c-0.2,0.1-0.5,0.1-0.7,0.2c-1-3.9-1.6-8.1-1.7-12.6h18v10c-0.3,0-0.6,0-0.9,0
	C32.9,46,32.6,46.1,32.4,46.1z M18.4,21.7c0.3,0.1,0.6,0.2,0.9,0.3c0.3,0.1,0.5,0.2,0.8,0.2c0.3,0.1,0.6,0.2,1,0.2
	c0.3,0.1,0.6,0.1,0.8,0.2c0.3,0.1,0.6,0.1,1,0.2c0.3,0.1,0.6,0.1,0.8,0.2c0.3,0.1,0.7,0.1,1,0.2c0.3,0,0.6,0.1,0.8,0.1
	c0.3,0.1,0.7,0.1,1,0.1c0.3,0,0.6,0.1,0.8,0.1c0.4,0,0.7,0.1,1.1,0.1c0.3,0,0.5,0.1,0.8,0.1c0.4,0,0.7,0.1,1.1,0.1
	c0.3,0,0.5,0,0.8,0.1c0.4,0,0.8,0,1.2,0.1c0.2,0,0.4,0,0.7,0c0.3,0,0.6,0,0.9,0v10H16c0.1-4.5,0.7-8.7,1.7-12.6
	C17.9,21.5,18.2,21.6,18.4,21.7z M36,34V24c0.3,0,0.6,0,0.9,0c0.2,0,0.4,0,0.6,0c0.4,0,0.8,0,1.3-0.1c0.3,0,0.5,0,0.7-0.1
	c0.4,0,0.8-0.1,1.1-0.1c0.3,0,0.5-0.1,0.8-0.1c0.4,0,0.7-0.1,1.1-0.1c0.3,0,0.5-0.1,0.8-0.1c0.4,0,0.7-0.1,1-0.2
	c0.3,0,0.5-0.1,0.8-0.1c0.3-0.1,0.7-0.1,1-0.2c0.3-0.1,0.5-0.1,0.8-0.2c0.3-0.1,0.7-0.1,1-0.2c0.3-0.1,0.5-0.1,0.8-0.2
	c0.3-0.1,0.7-0.2,1-0.2c0.3-0.1,0.5-0.1,0.8-0.2c0.3-0.1,0.7-0.2,1-0.3c0.2-0.1,0.5-0.1,0.7-0.2c1,3.9,1.6,8.1,1.7,12.6H36z
	 M49.1,20.3c-0.1,0-0.3,0.1-0.4,0.1c-1,0.2-2,0.5-3,0.7c-0.1,0-0.2,0-0.4,0.1c-1,0.2-2.1,0.4-3.1,0.5c-0.1,0-0.2,0-0.3,0
	c-1.1,0.1-2.2,0.2-3.3,0.3c-0.1,0-0.1,0-0.2,0c-0.8,0-1.6,0.1-2.5,0.1V2c6.8,0.6,12.7,7.5,15.8,17.5C50.9,19.8,50,20,49.1,20.3z
	 M34,22c-0.8,0-1.7,0-2.5-0.1c-0.1,0-0.1,0-0.2,0c-1.1-0.1-2.2-0.2-3.3-0.3c-0.1,0-0.2,0-0.3,0c-1.1-0.1-2.1-0.3-3.1-0.5
	c-0.1,0-0.2,0-0.4-0.1c-1-0.2-2-0.4-3-0.7c-0.1,0-0.3-0.1-0.4-0.1c-0.9-0.2-1.8-0.5-2.6-0.8C21.3,9.6,27.2,2.7,34,2V22z M20.8,49.7
	c0.1,0,0.3-0.1,0.4-0.1c1-0.2,2-0.5,3-0.7c0.1,0,0.2,0,0.4-0.1c1-0.2,2.1-0.3,3.1-0.5c0.1,0,0.2,0,0.3,0c1.1-0.1,2.2-0.2,3.3-0.3
	c0.1,0,0.1,0,0.2,0c0.8,0,1.6-0.1,2.5-0.1V68c-6.8-0.6-12.7-7.5-15.8-17.5C19.1,50.2,20,50,20.8,49.7z M36,48c0.8,0,1.7,0,2.5,0.1
	c0.1,0,0.1,0,0.2,0c1.1,0.1,2.2,0.2,3.3,0.3c0.1,0,0.2,0,0.3,0c1.1,0.1,2.1,0.3,3.1,0.5c0.1,0,0.2,0,0.4,0.1c1,0.2,2,0.4,3,0.7
	c0.1,0,0.3,0.1,0.4,0.1c0.9,0.2,1.8,0.5,2.6,0.7C48.7,60.4,42.8,67.3,36,68V48z M61.5,15.3c-0.1,0-0.1,0.1-0.2,0.1
	c-0.8,0.5-1.7,0.9-2.6,1.3c-0.1,0.1-0.3,0.1-0.4,0.2c-0.9,0.4-1.8,0.8-2.7,1.2c-0.1,0.1-0.3,0.1-0.4,0.2c-0.5,0.2-1.1,0.4-1.6,0.6
	C51.5,12,48,6.5,43.8,3.2C50.8,5.1,57,9.4,61.5,15.3z M26.2,3.2C22,6.5,18.5,12,16.4,18.9c-0.5-0.2-1.1-0.4-1.6-0.6
	c-0.1-0.1-0.3-0.1-0.4-0.2c-0.9-0.4-1.8-0.8-2.7-1.2c-0.1-0.1-0.2-0.1-0.4-0.2c-0.9-0.4-1.8-0.9-2.6-1.4c0,0-0.1-0.1-0.1-0.1
	C13,9.4,19.2,5.1,26.2,3.2z M8.5,54.7c0,0,0.1-0.1,0.1-0.1c0.8-0.5,1.7-0.9,2.6-1.4c0.1-0.1,0.3-0.1,0.4-0.2
	c0.9-0.4,1.8-0.8,2.7-1.2c0.1-0.1,0.3-0.1,0.4-0.2c0.5-0.2,1.1-0.4,1.6-0.6c2.2,6.9,5.6,12.4,9.9,15.7C19.2,64.9,13,60.6,8.5,54.7z
	 M43.8,66.8c4.2-3.3,7.7-8.8,9.9-15.7c0.5,0.2,1.1,0.4,1.6,0.6c0.1,0.1,0.3,0.1,0.4,0.2c0.9,0.4,1.8,0.8,2.7,1.2
	c0.1,0.1,0.3,0.1,0.4,0.2c0.9,0.4,1.7,0.9,2.6,1.3c0.1,0,0.1,0.1,0.2,0.1C57,60.6,50.8,64.9,43.8,66.8z"/>
</svg>
