<?xml version="1.0" encoding="utf-8"?>
<!-- Generator: Adobe Illustrator 19.2.1, SVG Export Plug-In . SVG Version: 6.00 Build 0)  -->
<svg version="1.1" id="Layer_1" xmlns="http://www.w3.org/2000/svg" xmlns:xlink="http://www.w3.org/1999/xlink" x="0px" y="0px"
	 viewBox="0 0 30 30" style="enable-background:new 0 0 30 30;" xml:space="preserve">
<style type="text/css">
	.st0{fill-rule:evenodd;clip-rule:evenodd;fill:#2B333B;}
</style>
<path class="st0" d="M27,5H3C1.3,5,0,6.3,0,8v14c0,1.7,1.3,3,3,3h24c1.7,0,3-1.3,3-3V8C30,6.3,28.7,5,27,5z M21.9,15L28,8.9v12.1
	L21.9,15z M27,7C27,7,27,7,27,7L15,19L3,7c0,0,0,0,0,0H27z M2,21.1V8.9L8.1,15L2,21.1z M3,23C3,23,3,23,3,23l6.5-6.5l4.7,4.7
	c0.2,0.2,0.5,0.3,0.7,0.3c0.3,0,0.5-0.1,0.7-0.3l4.7-4.7L27,23c0,0,0,0,0,0H3z"/>
</svg>
