<?xml version="1.0" encoding="utf-8"?>
<!-- Generator: Adobe Illustrator 19.2.1, SVG Export Plug-In . SVG Version: 6.00 Build 0)  -->
<svg version="1.1" id="Layer_1" xmlns="http://www.w3.org/2000/svg" xmlns:xlink="http://www.w3.org/1999/xlink" x="0px" y="0px"
	 viewBox="0 0 18 18" style="enable-background:new 0 0 18 18;" xml:space="preserve">
<style type="text/css">
	.st0{fill:#8F9AA6;}
</style>
<path class="st0" d="M12,10H9c-0.6,0-1-0.4-1-1V5c0-0.6,0.4-1,1-1s1,0.4,1,1v3h2c0.6,0,1,0.4,1,1S12.6,10,12,10z M18,15V7
	c0-0.6-0.4-1-1-1s-1,0.4-1,1v8c0,0.6-0.4,1-1,1H3c-0.6,0-1-0.4-1-1V3c0-0.6,0.4-1,1-1h8c0.6,0,1-0.4,1-1s-0.4-1-1-1H3
	C1.3,0,0,1.3,0,3v12c0,1.7,1.3,3,3,3h12C16.7,18,18,16.7,18,15z"/>
</svg>
