<?xml version="1.0" encoding="utf-8"?>
<!-- Generator: Adobe Illustrator 19.2.1, SVG Export Plug-In . SVG Version: 6.00 Build 0)  -->
<svg version="1.1" id="Layer_1" xmlns="http://www.w3.org/2000/svg" xmlns:xlink="http://www.w3.org/1999/xlink" x="0px" y="0px"
	 viewBox="0 0 42 70" style="enable-background:new 0 0 42 70;" xml:space="preserve">
<style type="text/css">
	.st0{fill:#33CC99;}
</style>
<path class="st0" d="M38,29c2.2,0,4-1.8,4-4v-4C42,9.4,32.6,0,21,0C9.4,0,0,9.4,0,21v28c0,11.6,9.4,21,21,21c11.6,0,21-9.4,21-21V34
	c0-0.6-0.4-1-1-1H8V21c0-7.2,5.8-13,13-13c7.2,0,13,5.8,13,13v4C34,27.2,35.8,29,38,29z M21,68C10.5,68,2,59.5,2,49V35h38v14
	C40,59.5,31.5,68,21,68z M21,6C12.7,6,6,12.7,6,21v12H2V21C2,10.5,10.5,2,21,2s19,8.5,19,19v4c0,1.1-0.9,2-2,2s-2-0.9-2-2v-4
	C36,12.7,29.3,6,21,6z M21,39c-3.3,0-6,2.7-6,6c0,2.2,1.2,4.1,3,5.2V56c0,1.7,1.3,3,3,3s3-1.3,3-3v-5.8c1.8-1.1,3-3,3-5.2
	C27,41.7,24.3,39,21,39z M22.6,48.7c-0.4,0.2-0.6,0.5-0.6,0.9V56c0,0.6-0.4,1-1,1c-0.6,0-1-0.4-1-1v-6.4c0-0.4-0.2-0.8-0.6-0.9
	C17.9,48,17,46.6,17,45c0-2.2,1.8-4,4-4c2.2,0,4,1.8,4,4C25,46.6,24.1,48,22.6,48.7z"/>
</svg>
