<?xml version="1.0" encoding="utf-8"?>
<!-- Generator: Adobe Illustrator 19.2.1, SVG Export Plug-In . SVG Version: 6.00 Build 0)  -->
<svg version="1.1" id="Layer_1" xmlns="http://www.w3.org/2000/svg" xmlns:xlink="http://www.w3.org/1999/xlink" x="0px" y="0px"
	 viewBox="0 0 50 70" style="enable-background:new 0 0 50 70;" xml:space="preserve">
<style type="text/css">
	.st0{fill:#33CC99;}
</style>
<path class="st0" d="M39,70H19c-6.1,0-11-4.9-11-11c0-0.6,0.4-1,1-1s1,0.4,1,1c0,5,4,9,9,9h20c5,0,9-4,9-9V11c0-5-4-9-9-9H19
	c-5,0-9,4-9,9c0,0.6-0.4,1-1,1s-1-0.4-1-1C8,4.9,12.9,0,19,0h20c6.1,0,11,4.9,11,11v48C50,65.1,45.1,70,39,70z M38,35
	c0-0.6-0.4-1-1-1H1c-0.6,0-1,0.4-1,1c0,0.6,0.4,1,1,1h36C37.6,36,38,35.6,38,35z M29.7,43.7l8-8c0.4-0.4,0.4-1,0-1.4l-8-8
	c-0.4-0.4-1-0.4-1.4,0s-0.4,1,0,1.4l7.3,7.3l-7.3,7.3c-0.4,0.4-0.4,1,0,1.4c0.2,0.2,0.5,0.3,0.7,0.3S29.5,43.9,29.7,43.7z"/>
</svg>
