<?xml version="1.0" encoding="utf-8"?>
<!-- Generator: Adobe Illustrator 19.2.1, SVG Export Plug-In . SVG Version: 6.00 Build 0)  -->
<svg version="1.1" id="Layer_1" xmlns="http://www.w3.org/2000/svg" xmlns:xlink="http://www.w3.org/1999/xlink" x="0px" y="0px"
	 viewBox="0 0 18 18" style="enable-background:new 0 0 18 18;" xml:space="preserve">
<style type="text/css">
	.st0{fill-rule:evenodd;clip-rule:evenodd;fill:#8F9AA6;}
</style>
<path class="st0" d="M17.7,17.7c-0.4,0.4-1,0.4-1.4,0l-3.4-3.4c-1.4,1-3,1.7-4.9,1.7c-4.4,0-8-3.6-8-8s3.6-8,8-8s8,3.6,8,8
	c0,1.8-0.6,3.5-1.7,4.9l3.4,3.4C18.1,16.7,18.1,17.3,17.7,17.7z M8,2C4.7,2,2,4.7,2,8s2.7,6,6,6s6-2.7,6-6S11.3,2,8,2z"/>
</svg>
