<?xml version="1.0" encoding="utf-8"?>
<!-- Generator: Adobe Illustrator 19.2.1, SVG Export Plug-In . SVG Version: 6.00 Build 0)  -->
<svg version="1.1" id="Layer_1" xmlns="http://www.w3.org/2000/svg" xmlns:xlink="http://www.w3.org/1999/xlink" x="0px" y="0px"
	 viewBox="0 0 26 18" style="enable-background:new 0 0 26 18;" xml:space="preserve">
<style type="text/css">
	.st0{fill:#231F20;}
</style>
<g>
	<path class="st0" d="M13.2,0C8.1,0,4,4,4,9s4.1,9,9.2,9c5.3,0,8.8-3.7,8.8-8.8c0-0.7-0.1-1.3-0.2-1.8h-8.6v3.3v0h5.1
		c-0.2,1.4-1.5,3.8-5.1,3.8c-3,0-5.5-2.5-5.5-5.5c0-3,2.5-5.5,5.5-5.5c1.7,0,2.9,0.7,3.5,1.3l2.6-2.5C17.7,0.9,15.7,0,13.2,0"/>
</g>
</svg>
