<?xml version="1.0" encoding="utf-8"?>
<!-- Generator: Adobe Illustrator 21.0.0, SVG Export Plug-In . SVG Version: 6.00 Build 0)  -->
<svg version="1.1" id="Слой_1" xmlns="http://www.w3.org/2000/svg" xmlns:xlink="http://www.w3.org/1999/xlink" x="0px" y="0px"
	 viewBox="0 0 26 18" enable-background="new 0 0 26 18" xml:space="preserve">
<g id="Слой_2">
</g>
<image display="none" overflow="visible" enable-background="new    " width="1152" height="864" xlink:href="C41638D052A9521E.png"  transform="matrix(0.2309 0 0 0.2309 -120 -90.75)">
</image>
<g id="Слой_3">
</g>
<g>
	<g>
		<defs>
			<path id="SVGID_1_" d="M21.1,7.4h-1h-3.4h-4v3.5h4.8c-0.5,2.2-2.3,3.5-4.8,3.5c-2.9,0-5.3-2.4-5.3-5.3s2.4-5.3,5.3-5.3
				c1.3,0,2.4,0.5,3.3,1.2l2.6-2.6C17,0.9,15,0,12.7,0c-5,0-9,4-9,9s4,9,9,9c4.5,0,8.6-3.3,8.6-9C21.3,8.5,21.2,7.9,21.1,7.4z"/>
		</defs>
		<clipPath id="SVGID_2_">
			<use xlink:href="#SVGID_1_"  overflow="visible"/>
		</clipPath>
		<polygon clip-path="url(#SVGID_2_)" fill="#FBBC05" points="2.9,14.3 2.9,3.7 9.8,9 		"/>
	</g>
	<g>
		<defs>
			<path id="SVGID_3_" d="M21.1,7.4h-1h-3.4h-4v3.5h4.8c-0.5,2.2-2.3,3.5-4.8,3.5c-2.9,0-5.3-2.4-5.3-5.3s2.4-5.3,5.3-5.3
				c1.3,0,2.4,0.5,3.3,1.2l2.6-2.6C17,0.9,15,0,12.7,0c-5,0-9,4-9,9s4,9,9,9c4.5,0,8.6-3.3,8.6-9C21.3,8.5,21.2,7.9,21.1,7.4z"/>
		</defs>
		<clipPath id="SVGID_4_">
			<use xlink:href="#SVGID_3_"  overflow="visible"/>
		</clipPath>
		<polygon clip-path="url(#SVGID_4_)" fill="#EA4335" points="2.9,3.7 9.8,9 12.7,6.5 22.5,4.9 22.5,-0.8 2.9,-0.8 		"/>
	</g>
	<g>
		<defs>
			<path id="SVGID_5_" d="M21.1,7.4h-1h-3.4h-4v3.5h4.8c-0.5,2.2-2.3,3.5-4.8,3.5c-2.9,0-5.3-2.4-5.3-5.3s2.4-5.3,5.3-5.3
				c1.3,0,2.4,0.5,3.3,1.2l2.6-2.6C17,0.9,15,0,12.7,0c-5,0-9,4-9,9s4,9,9,9c4.5,0,8.6-3.3,8.6-9C21.3,8.5,21.2,7.9,21.1,7.4z"/>
		</defs>
		<clipPath id="SVGID_6_">
			<use xlink:href="#SVGID_5_"  overflow="visible"/>
		</clipPath>
		<polygon clip-path="url(#SVGID_6_)" fill="#34A853" points="2.9,14.3 15.2,4.9 18.4,5.3 22.5,-0.8 22.5,18.8 2.9,18.8 		"/>
	</g>
	<g>
		<defs>
			<path id="SVGID_7_" d="M21.1,7.4h-1h-3.4h-4v3.5h4.8c-0.5,2.2-2.3,3.5-4.8,3.5c-2.9,0-5.3-2.4-5.3-5.3s2.4-5.3,5.3-5.3
				c1.3,0,2.4,0.5,3.3,1.2l2.6-2.6C17,0.9,15,0,12.7,0c-5,0-9,4-9,9s4,9,9,9c4.5,0,8.6-3.3,8.6-9C21.3,8.5,21.2,7.9,21.1,7.4z"/>
		</defs>
		<clipPath id="SVGID_8_">
			<use xlink:href="#SVGID_7_"  overflow="visible"/>
		</clipPath>
		<polygon clip-path="url(#SVGID_8_)" fill="#4285F4" points="22.5,18.8 9.8,9 8.2,7.8 22.5,3.7 		"/>
	</g>
</g>
</svg>
