<?xml version="1.0" encoding="utf-8"?>
<!-- Generator: Adobe Illustrator 19.2.1, SVG Export Plug-In . SVG Version: 6.00 Build 0)  -->
<svg version="1.1" id="Layer_1" xmlns="http://www.w3.org/2000/svg" xmlns:xlink="http://www.w3.org/1999/xlink" x="0px" y="0px"
	 viewBox="0 0 14 14" style="enable-background:new 0 0 14 14;" xml:space="preserve">
<style type="text/css">
	.st0{fill:#FFFFFF;}
</style>
<path class="st0" d="M4,4l3-2v10l-3-2H0V4H4z M12.1,1.4l-0.1-0.2c-0.2-0.2-0.5-0.3-0.7-0.1c-0.2,0.2-0.3,0.5-0.1,0.7L11.2,2
	c1,1.4,1.8,2.7,1.8,5c0,2.3-0.9,3.6-1.9,5.2l0,0.1c-0.2,0.2-0.1,0.5,0.2,0.7c0.1,0.1,0.2,0.1,0.3,0.1c0.2,0,0.4-0.1,0.5-0.2
	c1.1-1.6,2-3.1,2-5.7C14,4.4,13.1,2.9,12.1,1.4z M9.2,3.1C9,3.2,8.9,3.5,9.1,3.8C9.7,4.8,10,5.9,10,7c0,1.1-0.3,2.2-0.9,3.2
	c-0.1,0.2-0.1,0.5,0.2,0.7C9.3,11,9.4,11,9.5,11c0.2,0,0.3-0.1,0.4-0.2C10.6,9.5,11,8.3,11,7s-0.4-2.5-1.1-3.8
	C9.8,3,9.5,2.9,9.2,3.1z"/>
</svg>
