<?xml version="1.0" encoding="utf-8"?>
<!-- Generator: Adobe Illustrator 19.2.1, SVG Export Plug-In . SVG Version: 6.00 Build 0)  -->
<svg version="1.1" id="Layer_1" xmlns="http://www.w3.org/2000/svg" xmlns:xlink="http://www.w3.org/1999/xlink" x="0px" y="0px"
	 viewBox="0 0 30 30" style="enable-background:new 0 0 30 30;" xml:space="preserve">
<style type="text/css">
	.st0{fill:#2B333B;}
</style>
<path class="st0" d="M30,15c0-0.9-0.5-1.7-1.2-2.1l-0.6-0.4l0.6-0.4c0.7-0.4,1.2-1.2,1.2-2.1c0-0.9-0.5-1.7-1.2-2.1L17.7,0.8
	C16.9,0.3,16,0,15,0c-1,0-1.9,0.3-2.7,0.8L1.2,7.9C0.5,8.3,0,9.1,0,10c0,0.9,0.5,1.7,1.2,2.1l0.6,0.4l-0.6,0.4C0.5,13.3,0,14.1,0,15
	c0,0.9,0.5,1.7,1.2,2.1l0.6,0.4l-0.6,0.4C0.5,18.3,0,19.1,0,20c0,0.9,0.5,1.7,1.2,2.1l11.2,7.1C13.1,29.7,14,30,15,30
	c1,0,1.9-0.3,2.7-0.8l11.2-7.1c0.7-0.4,1.2-1.2,1.2-2.1c0-0.9-0.5-1.7-1.2-2.1l-0.6-0.4l0.6-0.4C29.5,16.7,30,15.9,30,15z M2.2,9.6
	l11.2-7.1C13.9,2.2,14.4,2,15,2s1.1,0.2,1.6,0.5l11.2,7.1c0.1,0,0.2,0.2,0.2,0.4c0,0.3-0.2,0.4-0.2,0.4l-11.2,7.1
	c-0.5,0.3-1,0.5-1.6,0.5c-0.6,0-1.1-0.2-1.6-0.5L2.2,10.4C2.2,10.4,2,10.3,2,10C2,9.7,2.2,9.6,2.2,9.6z M12.3,19.2
	C13.1,19.7,14,20,15,20c1,0,1.9-0.3,2.7-0.8l8.7-5.5l1.4,0.9c0.1,0,0.2,0.2,0.2,0.4c0,0.3-0.2,0.4-0.2,0.4l-11.2,7.1
	c-0.5,0.3-1,0.5-1.6,0.5c-0.6,0-1.1-0.2-1.6-0.5L2.2,15.4C2.2,15.4,2,15.3,2,15c0-0.3,0.2-0.4,0.2-0.4l1.4-0.9L12.3,19.2z
	 M27.8,19.6c0.1,0,0.2,0.2,0.2,0.4s-0.2,0.4-0.2,0.4l-11.2,7.1c-0.5,0.3-1,0.5-1.6,0.5c-0.6,0-1.1-0.2-1.6-0.5L2.2,20.4
	C2.2,20.4,2,20.3,2,20s0.2-0.4,0.2-0.4l1.4-0.9l8.7,5.5C13.1,24.7,14,25,15,25c1,0,1.9-0.3,2.7-0.8l8.7-5.5L27.8,19.6z"/>
</svg>
