<?xml version="1.0" encoding="utf-8"?>
<!-- Generator: Adobe Illustrator 19.2.1, SVG Export Plug-In . SVG Version: 6.00 Build 0)  -->
<svg version="1.1" id="Layer_1" xmlns="http://www.w3.org/2000/svg" xmlns:xlink="http://www.w3.org/1999/xlink" x="0px" y="0px"
	 viewBox="0 0 18 18" style="enable-background:new 0 0 18 18;" xml:space="preserve">
<style type="text/css">
	.st0{fill:#8F9AA6;}
</style>
<path class="st0" d="M9,18c-5,0-9-4-9-9c0-5,4-9,9-9c5,0,9,4,9,9C18,14,14,18,9,18z M9,2C5.1,2,2,5.1,2,9c0,3.9,3.1,7,7,7
	c3.9,0,7-3.1,7-7C16,5.1,12.9,2,9,2z M10,10V9.8c1.2-0.4,2-1.5,2-2.8c0-1.7-1.3-3-3-3S6,5.3,6,7c0,0.6,0.4,1,1,1s1-0.4,1-1
	c0-0.6,0.4-1,1-1s1,0.4,1,1S9.6,8,9,8C8.4,8,8,8.4,8,9v1c0,0.6,0.4,1,1,1S10,10.6,10,10z M9,12c-0.6,0-1,0.4-1,1s0.4,1,1,1
	s1-0.4,1-1S9.6,12,9,12z"/>
</svg>
