<?xml version="1.0" encoding="utf-8"?>
<!-- Generator: Adobe Illustrator 21.0.2, SVG Export Plug-In . SVG Version: 6.00 Build 0)  -->
<svg version="1.1" id="Layer_1" xmlns="http://www.w3.org/2000/svg" xmlns:xlink="http://www.w3.org/1999/xlink" x="0px" y="0px"
	 viewBox="0 0 94 24" style="enable-background:new 0 0 94 24;" xml:space="preserve">
<style type="text/css">
	.st0{fill:#6CE838;}
</style>
<path d="M41.1,17.5v-6c0-3.7-3.6-2.4-4-2.2v8.2h-2.9l0-10c1.4-0.9,9.9-2.9,9.9,3.4v6.6H41.1z M55.1,17.4c-1.5,0.2-9.9,1.9-9.9-3
	c0-4.5,6-3.4,7-3.4c0,0,0.4-2.4-2.4-2.4c-1.9,0-2.8,0.9-2.9,0.9c-0.2-0.1-0.4-0.3-0.5-0.5c-0.2-0.2-0.2-0.5-0.2-0.8
	c0-0.3,0.2-1.7,3.5-1.7c3.6,0,4.7,1.8,5,2.4c0.3,0.6,0.4,1.3,0.4,2.2V17.4z M52.2,12.8c0,0-4.1-0.8-4.1,1.5c0,2.3,3.9,1.4,4.1,1.4
	V12.8z M60.6,9.1v4.6c0,2.8,3.2,1,3.2,1l1.1,1.8c0,0-3.8,2.6-6.3,0.1c-0.6-0.6-0.9-1.6-0.9-2.7V9.1h-0.7c-2,0-1-2.3-1-2.4h1.7V4.9
	c0-2,2.9-1,2.9-1v2.9h1.8c2,0,1,2.3,1,2.4H60.6z M69.1,3.6c0,0.4-0.2,0.8-0.5,1.1c-0.3,0.3-0.7,0.5-1.2,0.5c-0.4,0-0.8-0.2-1.2-0.5
	C66,4.4,65.8,4,65.8,3.6c0-0.4,0.2-0.8,0.5-1.1C66.6,2.2,67,2,67.5,2c0.5,0,0.9,0.2,1.2,0.5C69,2.8,69.1,3.1,69.1,3.6z M66,8
	c0-2,2.9-1,2.9-1v10.4H66V8z M82.1,7.4c-0.1,0.3-1.9,5.4-4.6,10.3h-2.9c-1.6-2.8-3.9-7.9-4.2-8.9c-0.6-2.6,2.3-2,2.7-1.7
	c1,2.8,2.9,7.4,3.1,7.8c0.1-0.1,2.1-5,2.6-6.5C79.7,5.6,82.1,7.3,82.1,7.4z M92.1,10.5c0,0.4,0.1,2.8-3.4,2.8h-3.6
	c0.9,3.2,4.8,1.8,5.6,1.6l0.8,2.1c-2.6,1.1-9.3,1.8-9.4-4.8c-0.1-4.4,3.4-5.8,5.7-5.8C91.7,6.4,92.1,10,92.1,10.5z M89.4,10.3
	c0-0.2-0.2-1.9-1.9-1.9c-2.1,0-2.4,2.7-2.4,3h3.2c0.5,0,0.8-0.1,0.9-0.3C89.3,10.9,89.4,10.7,89.4,10.3z"/>
<path class="st0" d="M12.7,6.8H9.4C8.7,6.5,8,6.4,7.3,6.4c-0.8,0-1.5,0.1-2.2,0.4C4.5,7,3.9,7.4,3.4,7.8c-0.5,0.5-0.9,1-1.1,1.6
	c-0.3,0.6-0.4,1.3-0.4,2.1c0,0.8,0.1,1.4,0.4,2.1c0.3,0.6,0.6,1.2,1.1,1.6c0.5,0.5,1,0.8,1.7,1.1c0.7,0.3,1.4,0.4,2.2,0.4
	c0.1,0,0.2,0,0.3,0c0.1,0,0.3,0,0.4,0c0.1,0,0.3,0,0.4,0c0.1,0,0.2,0,0.3,0c0.3,0.2,1,0.6,1,1.4c0,3.1-5.7,1.1-6.3,0.6l-1.1,2.1
	c1.8,1.7,10.5,2.9,10.5-2.5c0-0.2-0.1-2-1.8-2.8c0.6-0.5,1-1,1.3-1.6c0.3-0.6,0.5-1.3,0.5-2.1c0-0.2,0-0.4-0.1-0.6
	c0-0.2-0.1-0.5-0.2-0.8c-0.1-0.3-0.2-0.5-0.3-0.8c-0.1-0.2-0.3-0.5-0.5-0.7l2,0.2c0-0.1,0.1-0.2,0.2-0.5C13.9,8.4,14,8.1,14,7.8
	c0-0.3-0.1-0.6-0.3-0.8C13.5,6.9,13.2,6.8,12.7,6.8z M9.5,12.3l-3.1,1.6c-0.5,0.2-1-0.1-1-0.6v-3.1c0-0.5,0.5-0.9,1-0.6l3.1,1.6
	C10,11.3,10,12,9.5,12.3z M24.3,10.5c0-0.6-0.4-4.1-4.3-4.1c-2.3,0-5.7,1.4-5.7,5.8c0.1,6.5,6.8,5.9,9.4,4.8l-0.8-2.1
	c-0.8,0.3-4.7,1.7-5.6-1.6H21C24.4,13.4,24.3,11,24.3,10.5z M17.3,11.4c0-0.3,0.3-3,2.4-3c1.7,0,1.9,1.7,1.9,1.9
	c0,0.4-0.1,0.7-0.2,0.8c-0.1,0.2-0.4,0.3-0.9,0.3H17.3z M32.6,16.6c0,0-3.8,2.6-6.3,0.1c-0.6-0.6-0.9-1.6-0.9-2.7V9.1V6.8V4.9
	c0-2,2.9-1,2.9-1v2.9h1.8c2,0,1,2.3,1,2.4h-2.7v4.6c0,2.8,3.2,1,3.2,1L32.6,16.6z"/>
</svg>
