<?xml version="1.0" encoding="utf-8"?>
<!-- Generator: Adobe Illustrator 19.2.1, SVG Export Plug-In . SVG Version: 6.00 Build 0)  -->
<svg version="1.1" id="Layer_1" xmlns="http://www.w3.org/2000/svg" xmlns:xlink="http://www.w3.org/1999/xlink" x="0px" y="0px"
	 viewBox="0 0 18 18" style="enable-background:new 0 0 18 18;" xml:space="preserve">
<style type="text/css">
	.st0{fill:#8F9AA6;}
</style>
<path class="st0" d="M16.9,7.6l-1.1-0.3C15.6,6.6,15.3,6,15,5.4l0.6-1c0.3-0.6,0.3-1.3-0.2-1.8l0,0c-0.5-0.5-1.2-0.6-1.8-0.2l-1,0.6
	c-0.6-0.4-1.2-0.6-1.9-0.8l-0.3-1.1C10.2,0.4,9.7,0,9,0h0C8.3,0,7.8,0.4,7.6,1.1L7.3,2.2C6.6,2.4,6,2.7,5.4,3l-1-0.6
	C3.8,2.1,3.1,2.2,2.6,2.6l0,0C2.2,3.1,2.1,3.8,2.4,4.4l0.6,1C2.7,6,2.4,6.6,2.2,7.3L1.1,7.6C0.4,7.8,0,8.3,0,9v0
	c0,0.7,0.4,1.2,1.1,1.4l1.1,0.3C2.4,11.4,2.7,12,3,12.6l-0.6,1c-0.3,0.6-0.3,1.3,0.2,1.8l0,0c0.5,0.5,1.2,0.6,1.8,0.2l1-0.6
	c0.6,0.4,1.2,0.6,1.9,0.8l0.3,1.1C7.8,17.6,8.3,18,9,18h0c0.7,0,1.2-0.4,1.4-1.1l0.3-1.1c0.7-0.2,1.3-0.4,1.9-0.8l1,0.6
	c0.6,0.3,1.3,0.3,1.8-0.2l0,0c0.5-0.5,0.6-1.2,0.2-1.8l-0.6-1c0.4-0.6,0.6-1.2,0.8-1.9l1.1-0.3C17.6,10.2,18,9.7,18,9v0
	C18,8.3,17.6,7.8,16.9,7.6z M9,13c-2.2,0-4-1.8-4-4c0-2.2,1.8-4,4-4s4,1.8,4,4C13,11.2,11.2,13,9,13z"/>
</svg>
