<?xml version="1.0" encoding="utf-8"?>
<!-- Generator: Adobe Illustrator 19.2.1, SVG Export Plug-In . SVG Version: 6.00 Build 0)  -->
<svg version="1.1" id="Layer_1" xmlns="http://www.w3.org/2000/svg" xmlns:xlink="http://www.w3.org/1999/xlink" x="0px" y="0px"
	 viewBox="0 0 18 18" style="enable-background:new 0 0 18 18;" xml:space="preserve">
<style type="text/css">
	.st0{fill:#8F9AA6;}
</style>
<path class="st0" d="M9,18H3c-0.6,0-1-0.4-1-1V1c0-0.6,0.4-1,1-1h6c0.6,0,1,0.4,1,1S9.6,2,9,2H4v14h5c0.6,0,1,0.4,1,1S9.6,18,9,18z
	 M15.9,9.4c0.2-0.3,0.1-0.7-0.1-1l-3-4c-0.3-0.4-1-0.5-1.4-0.2c-0.4,0.3-0.5,1-0.2,1.4L13,8H7C6.4,8,6,8.4,6,9s0.4,1,1,1h8
	C15.4,10,15.7,9.8,15.9,9.4z M12.8,13.6l3-4c0.3-0.4,0.2-1.1-0.2-1.4c-0.4-0.3-1.1-0.2-1.4,0.2l-3,4c-0.3,0.4-0.2,1.1,0.2,1.4
	c0.2,0.1,0.4,0.2,0.6,0.2C12.3,14,12.6,13.9,12.8,13.6z"/>
</svg>
