<?xml version="1.0" encoding="utf-8"?>
<!-- Generator: Adobe Illustrator 19.2.1, SVG Export Plug-In . SVG Version: 6.00 Build 0)  -->
<svg version="1.1" id="Layer_1" xmlns="http://www.w3.org/2000/svg" xmlns:xlink="http://www.w3.org/1999/xlink" x="0px" y="0px"
	 viewBox="0 0 70 70" style="enable-background:new 0 0 70 70;" xml:space="preserve">
<defs>
    <linearGradient id="gradient">
        <stop offset="0%" stop-color="#33CC99" />
        <stop offset="100%" stop-color="#00CCCC" />
    </linearGradient>
</defs>
<path fill="url(#gradient)" d="M65,25H52V5c0-2.8-2.2-5-5-5H5C2.2,0,0,2.2,0,5v28c0,2.8,2.2,5,5,5h1v6c0,0.4,0.2,0.8,0.6,0.9
	C6.7,45,6.9,45,7,45c0.3,0,0.5-0.1,0.7-0.3l6.7-6.7H18v24c0,0.6,0.4,1,1,1h5v6c0,0.4,0.2,0.8,0.6,0.9C24.7,70,24.9,70,25,70
	c0.3,0,0.5-0.1,0.7-0.3l6.7-6.7H65c2.8,0,5-2.2,5-5V30C70,27.2,67.8,25,65,25z M14,36c-0.3,0-0.5,0.1-0.7,0.3L8,41.6V37
	c0-0.6-0.4-1-1-1H5c-1.7,0-3-1.3-3-3V5c0-1.7,1.3-3,3-3h42c1.7,0,3,1.3,3,3v20H23c-2.8,0-5,2.2-5,5v6H14z M68,58c0,1.7-1.3,3-3,3H32
	c-0.3,0-0.5,0.1-0.7,0.3L26,66.6V62c0-0.6-0.4-1-1-1h-5V30c0-1.7,1.3-3,3-3h42c1.7,0,3,1.3,3,3V58z M55,38c0,0.6-0.4,1-1,1H34
	c-0.6,0-1-0.4-1-1s0.4-1,1-1h20C54.6,37,55,37.4,55,38z M55,44c0,0.6-0.4,1-1,1H34c-0.6,0-1-0.4-1-1s0.4-1,1-1h20
	C54.6,43,55,43.4,55,44z M45,50c0,0.6-0.4,1-1,1H34c-0.6,0-1-0.4-1-1s0.4-1,1-1h10C44.6,49,45,49.4,45,50z M15,14c0-0.6,0.4-1,1-1
	h20c0.6,0,1,0.4,1,1s-0.4,1-1,1H16C15.4,15,15,14.6,15,14z M36,21H16c-0.6,0-1-0.4-1-1s0.4-1,1-1h20c0.6,0,1,0.4,1,1S36.6,21,36,21z
	"/>
</svg>
