<?xml version="1.0" encoding="utf-8"?>
<!-- Generator: Adobe Illustrator 19.2.1, SVG Export Plug-In . SVG Version: 6.00 Build 0)  -->
<svg version="1.1" id="Layer_1" xmlns="http://www.w3.org/2000/svg" xmlns:xlink="http://www.w3.org/1999/xlink" x="0px" y="0px"
	 viewBox="0 0 16 16" style="enable-background:new 0 0 16 16;" xml:space="preserve">
<style type="text/css">
	.st0{fill:#8F9AA6;}
</style>
<path class="st0" d="M8,16c-4.4,0-8-3.6-8-8s3.6-8,8-8s8,3.6,8,8S12.4,16,8,16z M8,2C4.7,2,2,4.7,2,8s2.7,6,6,6s6-2.7,6-6
	S11.3,2,8,2z M11,8c0-0.6-0.4-1-1-1H9V5c0-0.6-0.4-1-1-1S7,4.4,7,5v3c0,0.6,0.4,1,1,1h2C10.6,9,11,8.6,11,8z"/>
</svg>
