<?xml version="1.0" encoding="utf-8"?>
<!-- Generator: Adobe Illustrator 19.2.1, SVG Export Plug-In . SVG Version: 6.00 Build 0)  -->
<svg version="1.1" id="Layer_1" xmlns="http://www.w3.org/2000/svg" xmlns:xlink="http://www.w3.org/1999/xlink" x="0px" y="0px"
	 viewBox="0 0 30 30" style="enable-background:new 0 0 30 30;" xml:space="preserve">
<style type="text/css">
	.st0{fill:#C3D4E5;}
	.st1{fill:#8F9AA6;}
</style>
<path class="st0" d="M15,30C6.7,30,0,23.3,0,15S6.7,0,15,0s15,6.7,15,15S23.3,30,15,30z M15,2C7.8,2,2,7.8,2,15s5.8,13,13,13
	s13-5.8,13-13S22.2,2,15,2z"/>
<path class="st1" d="M15,20c-4.4,0-8-4-8-5s3.6-5,8-5s8,4,8,5S19.4,20,15,20z M15,12c-1.7,0-3,1.4-3,3c0,1.7,1.3,3,3,3s3-1.3,3-3
	C18,13.4,16.6,12,15,12z"/>
</svg>
