<?xml version="1.0" encoding="utf-8"?>
<!-- Generator: Adobe Illustrator 19.2.1, SVG Export Plug-In . SVG Version: 6.00 Build 0)  -->
<svg version="1.1" id="Layer_1" xmlns="http://www.w3.org/2000/svg" xmlns:xlink="http://www.w3.org/1999/xlink" x="0px" y="0px"
	 viewBox="0 0 30 30" style="enable-background:new 0 0 30 30;" xml:space="preserve">
<style type="text/css">
	.st0{fill:#8F9AA6;}
	.st1{fill:#C3D4E5;}
</style>
<path class="st0" d="M17,20c-0.3,0-0.5-0.1-0.7-0.3l-4-4c-0.4-0.4-0.4-1,0-1.4l4-4c0.4-0.4,1-0.4,1.4,0c0.4,0.4,0.4,1,0,1.4L14.4,15
	l3.3,3.3c0.4,0.4,0.4,1,0,1.4C17.5,19.9,17.3,20,17,20z"/>
<path class="st1" d="M15,30C6.7,30,0,23.3,0,15C0,6.7,6.7,0,15,0c8.3,0,15,6.7,15,15C30,23.3,23.3,30,15,30z M15,2C7.8,2,2,7.8,2,15
	c0,7.2,5.8,13,13,13c7.2,0,13-5.8,13-13C28,7.8,22.2,2,15,2z"/>
</svg>
