<?xml version="1.0" encoding="utf-8"?>
<!-- Generator: Adobe Illustrator 19.2.1, SVG Export Plug-In . SVG Version: 6.00 Build 0)  -->
<svg version="1.1" id="Layer_1" xmlns="http://www.w3.org/2000/svg" xmlns:xlink="http://www.w3.org/1999/xlink" x="0px" y="0px"
	 viewBox="0 0 52 70" style="enable-background:new 0 0 52 70;" xml:space="preserve">
<style type="text/css">
	.st0{fill:#231F20;}
</style>
<path class="st0" d="M51.3,7l-25-7c-0.2,0-0.4,0-0.5,0l-25,7C0.3,7.2,0,7.6,0,8v32.8c0,6.7,3.3,13.1,8.7,17l16.7,12
	c0.2,0.1,0.4,0.2,0.6,0.2s0.4-0.1,0.6-0.2l16.7-12c5.5-3.9,8.7-10.3,8.7-17V8C52,7.6,51.7,7.2,51.3,7z M50,40.8
	c0,6.1-3,11.9-7.9,15.4L26,67.8L9.9,56.2C5,52.6,2,46.8,2,40.8v-32L26,2l24,6.7V40.8z M10,31c0,8.8,7.2,16,16,16s16-7.2,16-16
	s-7.2-16-16-16S10,22.2,10,31z M35.9,21.2L24,33.6l-3.3-3.3c-0.4-0.4-1-0.4-1.4,0s-0.4,1,0,1.4l4,4c0.2,0.2,0.4,0.3,0.7,0.3
	c0,0,0,0,0,0c0.3,0,0.5-0.1,0.7-0.3l12.5-13C39,25,40,27.9,40,31c0,7.7-6.3,14-14,14s-14-6.3-14-14s6.3-14,14-14
	C29.9,17,33.4,18.6,35.9,21.2z"/>
</svg>
