<?xml version="1.0" encoding="utf-8"?>
<!-- Generator: Adobe Illustrator 19.2.1, SVG Export Plug-In . SVG Version: 6.00 Build 0)  -->
<svg version="1.1" id="Layer_1" xmlns="http://www.w3.org/2000/svg" xmlns:xlink="http://www.w3.org/1999/xlink" x="0px" y="0px"
	 viewBox="0 0 16 14" style="enable-background:new 0 0 16 14;" xml:space="preserve">
<style type="text/css">
	.st0{fill:#8F9AA6;}
</style>
<path class="st0" d="M10.7,9.4l-3.3,4.1C7.1,13.8,6.8,14,6.4,14h0C5.6,14,5,13.4,5,12.6v-0.4c0-0.1,0-0.3,0.1-0.4l0.3-1
	C5.7,9.9,5,9,4.1,9H2.6c-0.4,0-0.7-0.1-1-0.4L0.4,7.4C0.1,7.1,0,6.8,0,6.4l0-2.9c0-0.4,0.1-0.7,0.4-1l2.2-2.2C2.9,0.1,3.2,0,3.6,0
	l6.1,0C10.4,0,11,0.6,11,1.4v7.2C11,8.8,10.9,9.1,10.7,9.4z M15,0l-1,0c-0.6,0-1,0.4-1,1v7c0,0.6,0.4,1,1,1h1c0.6,0,1-0.4,1-1V1
	C16,0.4,15.6,0,15,0z"/>
</svg>
